<?xml version="1.0" standalone="no"?>
<!DOCTYPE svg PUBLIC "-//W3C//DTD SVG 20010904//EN"
 "http://www.w3.org/TR/2001/REC-SVG-20010904/DTD/svg10.dtd">
<svg version="1.0" xmlns="http://www.w3.org/2000/svg"
 width="220.000000pt" height="220.000000pt" viewBox="0 0 220.000000 220.000000"
 preserveAspectRatio="xMidYMid meet">
<metadata>
Created by potrace 1.16, written by Peter Selinger 2001-2019
</metadata>
<g transform="translate(0.000000,220.000000) scale(0.100000,-0.100000)"
fill="#000000" stroke="none">
<path d="M1100 2010 c-8 -5 -32 -17 -54 -26 -40 -18 -76 -65 -76 -100 0 -11
-7 -29 -15 -40 -16 -21 -21 -94 -6 -94 5 0 7 -9 4 -19 -3 -10 0 -28 6 -40 10
-18 -2 -34 -112 -148 -67 -70 -154 -161 -192 -202 -39 -41 -106 -111 -150
-156 -144 -148 -320 -338 -323 -349 -2 -7 19 -10 62 -8 l64 4 143 151 c79 83
166 174 193 201 26 28 59 64 73 80 l24 29 -7 -149 -6 -149 35 -19 c30 -16 37
-25 45 -70 6 -28 15 -68 20 -88 l10 -38 -384 0 -384 0 0 -254 0 -254 65 13
c60 11 67 11 75 -6 12 -22 13 -39 1 -20 -7 11 -20 12 -75 1 -62 -12 -66 -14
-66 -40 l0 -27 95 18 c402 78 841 117 1115 99 265 -17 746 -89 833 -125 14 -6
17 -2 17 24 0 17 -1 31 -3 31 -2 0 -45 9 -97 21 -569 124 -1024 138 -1613 47
-126 -19 -171 -19 -139 1 16 10 301 47 502 66 358 34 827 4 1237 -79 l113 -23
0 253 0 254 -245 0 c-227 0 -245 1 -245 18 0 24 -24 90 -38 104 -7 7 -12 17
-12 24 0 6 -7 24 -15 40 -13 25 -13 31 0 50 13 20 12 29 -11 84 -14 34 -29 70
-34 81 -6 10 -14 28 -20 39 -14 28 -12 38 4 17 12 -15 119 -129 332 -352 51
-53 52 -53 118 -57 36 -1 66 1 66 5 0 5 -24 32 -52 61 -29 28 -123 125 -208
216 -206 217 -265 279 -392 412 -70 74 -104 116 -98 123 5 6 11 30 12 53 2 23
6 42 9 42 15 0 19 53 6 83 -8 18 -20 50 -27 71 -12 39 -64 96 -86 96 -6 0 -17
7 -24 15 -14 17 -47 19 -70 5z m60 -20 c0 -5 6 -10 14 -10 38 0 119 -112 101
-140 -3 -4 1 -10 7 -13 32 -11 -4 -13 -77 -5 -44 5 -118 7 -165 3 -47 -3 -80
-2 -75 2 6 5 12 21 13 36 4 58 60 117 111 117 12 0 21 5 21 10 0 6 11 10 25
10 14 0 25 -4 25 -10z m-290 -1321 c0 -11 -18 -56 -40 -99 l-39 -79 42 -3 c35
-2 43 -7 45 -25 3 -21 -1 -23 -36 -23 -22 0 -60 -3 -86 -6 -58 -8 -59 1 -7
111 l38 80 -44 3 c-37 3 -43 6 -43 26 0 12 3 26 7 29 3 4 42 7 85 7 72 0 78
-1 78 -21z m330 -3 c0 -19 -6 -25 -26 -28 -26 -3 -26 -3 -28 -98 l-1 -95 -32
-3 -33 -3 0 100 0 100 -27 3 c-20 2 -29 9 -31 26 -3 21 -1 22 87 22 90 0 91 0
91 -24z m103 7 c3 -10 5 -51 5 -92 0 -40 5 -78 10 -83 16 -16 47 -5 49 17 1
11 5 55 8 98 7 77 7 77 35 77 16 0 31 -4 34 -9 3 -5 3 -51 -1 -102 -6 -85 -9
-97 -34 -121 -37 -37 -96 -39 -136 -4 -27 23 -28 29 -32 121 -2 74 0 100 10
106 23 14 47 10 52 -8z m-660 -115 l45 -123 -26 -9 c-21 -7 -29 -5 -47 18 -27
33 -62 34 -77 1 -7 -16 -19 -25 -35 -25 -29 0 -30 20 -3 135 26 111 34 125 69
125 28 0 31 -5 74 -122z m986 109 c14 -6 33 -27 44 -45 27 -46 16 -125 -23
-164 -25 -24 -36 -28 -89 -28 -33 0 -63 5 -67 11 -3 6 -3 62 1 125 l7 114 51
0 c29 0 63 -6 76 -13z m-1191 -28 c3 -25 0 -27 -48 -33 -41 -5 -51 -10 -48
-24 2 -12 15 -18 46 -20 36 -3 42 -6 42 -27 0 -27 -16 -35 -53 -28 -26 5 -27
4 -27 -46 0 -50 -1 -51 -30 -51 -29 0 -30 2 -31 48 -1 26 -4 65 -7 87 -2 22
-5 56 -6 75 l-1 35 60 6 c92 9 100 7 103 -22z m1463 5 c48 -43 45 -168 -5
-211 -54 -46 -150 -19 -162 45 -16 82 11 161 61 183 28 12 84 3 106 -17z"/>
<path d="M410 1700 c0 -47 3 -60 15 -60 13 0 15 -33 15 -240 0 -132 4 -240 8
-240 4 0 48 43 97 96 50 53 98 104 108 112 14 14 17 35 17 144 0 121 1 128 20
128 18 0 20 7 20 60 l0 60 -150 0 -150 0 0 -60z"/>
</g>
</svg>
